PathFileType	4	(X/Y/Z)	/private/var/folders/ty/39vw2z0n5t95rf49mx2f_75w0000gn/T/tmpv4vay5ru_Sports2D/tmpv4vay5ru_Sports2D_px_person00.trc
DataRate	CameraRate	NumFrames	NumMarkers	Units	OrigDataRate	OrigDataStartFrame	OrigNumFrames
60	60	10	22	m	60	82	220
Frame#	Time	Hip			RHip			RKnee			RAnkle			RBigToe			RSmallToe			RHeel			LHip			LKnee			LAnkle			LBigToe			LSmallToe			LHeel			Neck			Head			Nose			RShoulder			RElbow			RWrist			LShoulder			LElbow			LWrist		
		X1	Y1	Z1	X2	Y2	Z2	X3	Y3	Z3	X4	Y4	Z4	X5	Y5	Z5	X6	Y6	Z6	X7	Y7	Z7	X8	Y8	Z8	X9	Y9	Z9	X10	Y10	Z10	X11	Y11	Z11	X12	Y12	Z12	X13	Y13	Z13	X14	Y14	Z14	X15	Y15	Z15	X16	Y16	Z16	X17	Y17	Z17	X18	Y18	Z18	X19	Y19	Z19	X20	Y20	Z20	X21	Y21	Z21	X22	Y22	Z22
82	1.3666666666666667	1034.3459057549348	582.7630799113076	0.0	1024.8795494099213	585.2483418653305	0.0	1111.4699291612853	655.9893308324091	0.0	1088.7468658156527	765.6869237726994	0.0	1130.403920852709	783.2983942970236	0.0	1119.8258075697959	788.7572667576007	0.0	1075.9554509676611	779.4967031402127	0.0	1043.0053127904202	579.983696000701	0.0	1117.1499219659165	638.4442122627986	0.0	1075.7441217280928	723.1036926335508	0.0	1108.0365359035343	751.6800707350807	0.0	1098.587966002693	747.023406939092	0.0	1064.6225589348928	733.4217878823196	0.0	1044.2770714399398	445.6609723866092	0.0	1075.9496673662445	379.4020509513947	0.0	1085.7325209760834	420.9792540685261	0.0	1024.5330748610484	468.4294880220983	0.0	991.4014181840562	543.9278932478054	0.0	1010.5820274361416	613.8102868155584	0.0	1050.487806392754	463.2915877571228	0.0	1038.1005770093655	536.6342744339242	0.0	1063.3009073795802	587.4576663401007	0.0
83	1.3833333333333333	1053.3001968094575	585.2805419485007	0.0	1043.1732159972505	588.3772184758913	0.0	1129.3186876552268	660.439659628619	0.0	1090.8042307815617	763.226346191739	0.0	1130.4210813218594	783.8432420259807	0.0	1119.4532370013806	788.2786885691886	0.0	1077.0430055691866	776.0981402252778	0.0	1063.375367832544	581.7376725155011	0.0	1140.9709380726995	635.976697976508	0.0	1117.6014368418068	728.3513322706514	0.0	1155.966859002652	752.4131649648189	0.0	1147.1270251780986	748.0213201821754	0.0	1108.3045836331512	741.4538985467184	0.0	1060.5812138154045	448.1217672266862	0.0	1092.6049275411929	380.58189888678584	0.0	1102.472732688455	423.21506404631975	0.0	1041.4283536368587	471.6348025301499	0.0	1010.113389578311	547.5242946913098	0.0	1031.7385117874462	616.5585213884185	0.0	1065.7556834585093	465.55590243554775	0.0	1055.3047084813281	539.7460941152804	0.0	1081.952835971079	589.6224444636257	0.0
84	1.4	1071.5634126381967	587.115993305839	0.0	1060.9402568842343	590.5002363672904	0.0	1146.9783551739704	664.326717957416	0.0	1093.4889019611246	759.3475128657324	0.0	1130.3988430162003	783.6056104894981	0.0	1118.993024601335	786.811217215917	0.0	1078.806956156414	770.6143239323732	0.0	1082.9893946157588	583.1692704836735	0.0	1162.3214631689418	636.100081378511	0.0	1156.5129029047982	733.5131970469002	0.0	1200.5966769645174	754.1222108188915	0.0	1192.7318780842827	749.5807026023646	0.0	1148.9341346715323	748.3047776294122	0.0	1077.114132297093	450.24445965246764	0.0	1109.167870173899	382.0385870210544	0.0	1119.0768874058488	425.1987257480138	0.0	1058.2371284091198	474.3116449947144	0.0	1027.8106539366895	550.2923721459409	0.0	1051.574053997932	618.5520493479188	0.0	1082.002122253745	467.64709526831194	0.0	1072.7308824179759	542.0782103145117	0.0	1100.7449359475265	590.7616993178052	0.0
85	1.4166666666666667	1089.3289809723733	588.4874652874727	0.0	1078.3972954080157	591.8715036991712	0.0	1164.982009368906	666.7939923865918	0.0	1098.6316908117553	754.192216986406	0.0	1132.2230536576935	782.4720840479705	0.0	1120.389351558038	784.3652086908618	0.0	1083.0209887623987	763.2842788969875	0.0	1101.8560239021192	584.5532460907029	0.0	1181.5115436315564	638.6902427931815	0.0	1190.1154840862066	738.3700316859191	0.0	1238.4171030667728	756.6505714398797	0.0	1231.2597993298675	751.832319011609	0.0	1183.9161477414282	753.6568540084813	0.0	1093.9000327367771	452.2974914717282	0.0	1125.4768714430481	384.0034932335918	0.0	1135.5169841209733	427.16803213496445	0.0	1074.8218334250214	476.66816625227625	0.0	1044.4702226098289	552.6173427761447	0.0	1069.7404760439924	620.0710176193718	0.0	1099.477460400299	469.80105666437754	0.0	1090.9087311639607	543.9578824872381	0.0	1120.2501004359635	591.2918265447054	0.0
86	1.4333333333333333	1106.8151558833883	589.6573686753777	0.0	1095.7029583558467	592.8551494921417	0.0	1183.5996355488357	667.2365793821235	0.0	1107.532486496613	748.2102653217045	0.0	1137.8768063806092	780.5302927733184	0.0	1125.7243709817917	781.1728638295134	0.0	1090.9801160832512	755.175162155072	0.0	1120.1085600029342	585.9844161914604	0.0	1199.1758737293376	642.7496301453334	0.0	1216.7523054820888	742.6016757744031	0.0	1267.1506776853303	759.7450550409377	0.0	1260.1260795505	754.7364845778964	0.0	1211.3916493968295	757.6433246638405	0.0	1110.7575808695542	454.6243652817031	0.0	1141.6256583499035	386.57103926501577	0.0	1151.795708234399	429.42264295488985	0.0	1090.8549567908397	479.0484604248782	0.0	1060.1125082250592	554.9568521601545	0.0	1086.0449374864168	621.6177342394144	0.0	1117.8590431254736	472.15080576127406	0.0	1110.1249978580304	545.6539056996676	0.0	1141.134945040986	590.9843781407417	0.0
87	1.45	1124.0351108080706	590.8421985578663	0.0	1112.7534850832744	593.849779821996	0.0	1202.7913596615144	665.548339005116	0.0	1121.024948963433	742.2130876396972	0.0	1149.1929482370435	777.9995485524265	0.0	1136.8305186192533	777.652589659045	0.0	1103.5696401298615	747.7944364245021	0.0	1137.7788832697886	587.4914240811191	0.0	1215.9445777569592	646.7775573409003	0.0	1235.873626461356	745.7061446203608	0.0	1286.1769824207624	762.9942672979811	0.0	1278.79617989769	757.9679693786712	0.0	1230.634229842157	760.3584240965804	0.0	1127.5178075283054	457.41241567704725	0.0	1157.8019145468534	389.6616902512092	0.0	1167.9316635431312	432.0992426583197	0.0	1106.1273244697	481.70456592975455	0.0	1074.8849554261599	557.6048074294856	0.0	1100.4491741820275	623.7207805917028	0.0	1136.6110713755265	474.64272787730897	0.0	1130.1685404296493	547.1762787066481	0.0	1163.46873200749	589.1633303935716	0.0
88	1.4666666666666666	1140.7291899988213	592.1464400666742	0.0	1129.1356038234662	595.1502893234965	0.0	1222.286277960604	662.1599882788541	0.0	1139.5836817032546	737.2430216161507	0.0	1167.3953919508945	775.2355753116333	0.0	1154.903615061741	774.403223593051	0.0	1121.3953301558734	742.4997719173158	0.0	1154.7513240699075	589.0995923409419	0.0	1232.3486504869627	649.3844165446294	0.0	1248.131991019269	747.1856304565839	0.0	1296.4005789937112	765.9031220202103	0.0	1288.6052072344216	760.9952809005815	0.0	1242.1743757539266	761.6063319412884	0.0	1144.12771025128	460.6020184455525	0.0	1174.1187415262036	393.056800073566	0.0	1183.9606138012136	435.1071921175299	0.0	1120.693268850741	484.6575318387578	0.0	1089.0112127850846	560.6113031119643	0.0	1113.0699567464644	626.670310071748	0.0	1155.341327319659	477.0887109780778	0.0	1150.3707142341455	548.2638297777542	0.0	1186.473744547838	585.5128356009484	0.0
89	1.4833333333333334	1156.5861927269168	593.56078199274	0.0	1144.4684493986988	596.8204935291095	0.0	1241.6587499870777	657.8529104083271	0.0	1163.2836615952224	734.2230427315735	0.0	1192.7283850918623	772.7854238265087	0.0	1180.2540787489904	772.1397298871092	0.0	1144.805862311469	740.2053046441845	0.0	1170.9301906883381	590.7357654975156	0.0	1248.7730697687991	649.857377805258	0.0	1255.173609439306	746.7238666151277	0.0	1299.857411739887	768.052301470064	0.0	1292.1638037093467	763.3115334379095	0.0	1247.6365075648418	761.0700850305716	0.0	1160.5760263156099	463.9678381819591	0.0	1190.5788117785314	396.4503688261692	0.0	1199.9073729309112	438.2493697878033	0.0	1134.7327742027355	487.7919456847208	0.0	1102.6485085326915	563.7840369265537	0.0	1124.201632021835	630.3687377422327	0.0	1173.8648753431426	479.27423191638985	0.0	1170.1026255610757	548.4742879828934	0.0	1209.0906027837527	580.6830997324304	0.0
90	1.5	1171.570467323838	595.031495701183	0.0	1158.7935137450672	598.7470754807412	0.0	1260.3691363297703	653.6006928059627	0.0	1191.7080718059262	733.6099873320833	0.0	1224.3188340554666	771.2324263002286	0.0	1212.1627178503024	771.4096629795387	0.0	1173.737159129818	741.2585089092303	0.0	1186.4406549029843	592.2134098964103	0.0	1265.440847045031	648.3366471084369	0.0	1259.204522382267	744.2348724536066	0.0	1299.1938288730814	769.1260410094798	0.0	1292.4826807970674	764.567699244876	0.0	1249.3305154695206	758.5603815738039	0.0	1176.8254892058737	467.2676390110496	0.0	1207.0693769522163	399.5221596059644	0.0	1215.7270643571164	441.3667302265989	0.0	1148.3899451923692	490.9986421981602	0.0	1115.839817860475	566.7571968328319	0.0	1134.298575788372	634.382281570438	0.0	1192.0986796118982	481.1208181586374	0.0	1189.229046301261	547.4804484352933	0.0	1230.6087039683707	575.9859384352948	0.0
91	1.5166666666666666	1186.01310100383	596.5420579400399	0.0	1172.5543174467364	600.8370620293106	0.0	1277.8463657838013	650.5290756684541	0.0	1223.8434857226007	735.3265197513416	0.0	1260.2292457080864	770.9318768118312	0.0	1248.7856174119052	772.3264925424755	0.0	1207.3861870186595	745.2479277757893	0.0	1201.6692124777699	593.4025094519418	0.0	1282.5612334793605	645.588132756032	0.0	1262.5392803018044	739.9374584230313	0.0	1297.2282926594455	768.8928647190053	0.0	1292.2163928674504	764.5103852778873	0.0	1249.8614957676648	754.0480243797418	0.0	1192.8329140836768	470.3766342063313	0.0	1223.3994391889628	402.12804675828414	0.0	1231.336347345812	444.41122146786967	0.0	1161.7803703885515	494.15679233373857	0.0	1128.5856940595113	569.182778292228	0.0	1143.9104647956617	638.1374294235694	0.0	1209.967089915996	482.77176768079164	0.0	1207.8907799592093	545.4838290283817	0.0	1250.6750731736993	572.5172393389026	0.0
